<?xml version="1.0" standalone="no"?>
<!DOCTYPE svg PUBLIC "-//W3C//DTD SVG 20010904//EN"
 "http://www.w3.org/TR/2001/REC-SVG-20010904/DTD/svg10.dtd">
<svg version="1.0" xmlns="http://www.w3.org/2000/svg"
 width="283.000000pt" height="266.000000pt" viewBox="0 0 283.000000 266.000000"
 preserveAspectRatio="xMidYMid meet">
<metadata>
Created by potrace 1.16, written by Peter Selinger 2001-2019
</metadata>
<g transform="translate(0.000000,266.000000) scale(0.100000,-0.100000)"
fill="#000000" stroke="none">
<path d="M1193 2636 c-39 -13 -101 -40 -138 -60 l-67 -37 -102 11 c-250 28
-456 -32 -644 -189 -94 -78 -194 -238 -228 -363 -8 -32 -14 -103 -14 -180 0
-107 4 -139 24 -203 53 -165 186 -328 345 -421 l81 -47 0 -561 c0 -424 3 -565
12 -574 17 -17 1889 -17 1906 0 9 9 12 150 12 574 l0 561 81 47 c159 93 292
255 346 423 23 72 24 89 21 228 -4 136 -7 156 -33 220 -38 95 -101 187 -177
262 -77 77 -115 103 -222 154 -141 68 -292 91 -459 70 l-94 -12 -67 37 c-121
66 -200 84 -366 83 -122 0 -157 -4 -217 -23z m371 -152 c214 -55 369 -226 397
-439 10 -73 16 -94 36 -112 34 -32 86 -31 120 3 25 25 26 29 20 102 -10 112
-47 220 -107 307 l-31 45 77 0 c359 0 635 -312 579 -656 -31 -189 -152 -344
-335 -426 -36 -16 -76 -35 -90 -41 l-25 -13 -3 -387 -2 -387 -132 0 -131 0 7
183 c3 100 10 211 15 247 19 136 52 304 61 315 6 7 13 32 16 57 5 39 3 48 -17
67 -43 40 -103 15 -116 -49 -3 -17 -9 -30 -13 -30 -4 0 -13 -35 -20 -77 -7
-43 -17 -89 -22 -102 -10 -28 -35 -300 -44 -484 l-6 -127 -159 0 -159 0 0 425
c0 412 -1 426 -20 445 -27 27 -62 25 -88 -5 -22 -25 -22 -28 -22 -445 l0 -420
-155 0 -155 0 0 33 c0 92 -23 378 -41 495 -22 152 -22 163 -9 142 8 -13 11
-12 24 5 15 19 22 65 11 65 -3 0 -17 -12 -30 -28 l-24 -27 -1 27 c0 15 -4 30
-10 33 -15 9 -12 45 3 39 18 -7 44 43 30 57 -7 7 -17 3 -31 -16 l-20 -26 -12
36 c-19 57 -72 73 -110 33 -28 -30 -24 -90 11 -159 4 -9 15 -70 24 -135 8 -66
20 -150 26 -189 6 -38 13 -141 16 -227 l6 -158 -101 0 -101 0 4 30 c2 21 -1
30 -11 30 -9 0 -14 -11 -14 -30 0 -25 -4 -30 -25 -30 l-25 0 -2 387 -3 387
-25 13 c-14 7 -60 28 -104 48 -58 28 -98 56 -157 112 -97 93 -143 177 -165
303 -60 343 220 659 584 660 l73 0 -31 -45 c-66 -96 -110 -230 -110 -337 0
-49 3 -59 26 -77 59 -46 144 -10 144 61 1 18 7 62 14 96 40 184 188 337 381
393 78 23 227 24 309 3z m636 -2254 l0 -80 -785 0 -785 0 0 80 0 80 785 0 785
0 0 -80z"/>
</g>
</svg>
